<?xml version="1.0" encoding="UTF-8" standalone="no"?>
<!-- Created with Inkscape (http://www.inkscape.org/) -->

<svg
   width="24.81189mm"
   height="24.795002mm"
   viewBox="0 0 24.81189 24.795002"
   version="1.1"
   id="svg5"
   xml:space="preserve"
   xmlns="http://www.w3.org/2000/svg"
   xmlns:svg="http://www.w3.org/2000/svg"><defs
     id="defs2" /><style
     id="style10304">
		.s0 { fill: #003366 } 
		.s1 { fill: #ffae4b } 
		.s2 { fill: #cc0000 } 
	</style><g
     id="g10545"
     transform="matrix(0.26458333,0,0,0.26458333,-11.055869,-94.587342)"><g
       id="BACKGROUND" /><g
       id="OBJECTS"><g
         id="g10314"><g
           id="&lt;Group&gt;" /><g
           id="g10308" /><g
           id="g10312"><g
             id="g10310" /></g></g><g
         id="g10328"><g
           id="g10316" /><g
           id="g10318" /><g
           id="g10322"><g
             id="g10320" /></g><g
           id="g10326"><g
             id="g10324" /></g></g><g
         id="g10337"><g
           id="&lt;Clip Group&gt;"><g
             id="g10330" /></g><g
           id="g10335"><g
             id="g10333" /></g></g><g
         id="g10339" /><g
         id="g10349"><g
           id="g10345"><g
             id="g10341" /><g
             id="g10343" /></g><g
           id="g10347" /></g><g
         id="g10359"><g
           id="g10357"><g
             id="g10351"
             style="mix-blend-mode:multiply" /><g
             id="g10353"
             style="mix-blend-mode:multiply" /><g
             id="g10355"
             style="mix-blend-mode:multiply" /></g></g><g
         id="g10375"><g
           id="g10373"><g
             id="g10369"><g
               id="g10361" /><g
               id="g10367"><g
                 id="g10363" /><g
                 id="g10365" /></g></g><g
             id="g10371" /></g></g><g
         id="g10381"><g
           id="g10377"
           style="mix-blend-mode:multiply" /><g
           id="g10379" /></g><g
         id="g10456"><g
           id="g10454"><path
             id="&lt;Path&gt;"
             fill-rule="evenodd"
             class="s0"
             d="m 92.2,400 c 0,0 3.2,-9.2 15.6,-18.6 3.4,-2.6 8.2,-5.9 9.9,-4.3 2.8,2.7 -16.7,7.7 -25.5,22.9 z" /><path
             id="path10384"
             fill-rule="evenodd"
             class="s1"
             d="m 90.2,398 c 0,0 2.1,-8.6 10,-17.9 2.2,-2.5 5.3,-5.8 6.3,-4.4 1.8,2.3 -10.6,7.9 -16.3,22.3 z" /><path
             id="path10386"
             fill-rule="evenodd"
             class="s0"
             d="m 92.1,389.1 c 0,0 1.2,-6.5 7,-13.7 1.6,-2 3.8,-4.6 4.7,-3.6 1.4,1.7 -7.9,6.3 -11.7,17.3 z" /><path
             id="path10388"
             fill-rule="evenodd"
             class="s1"
             d="m 98.8,394 c 0,0 4.2,-5.1 12.8,-8.5 2.3,-1 5.6,-2.2 5.8,-0.9 0.5,2.2 -10,1.7 -18.6,9.4 z" /><path
             id="path10390"
             fill-rule="evenodd"
             class="s0"
             d="m 93.5,399.7 c 0,0 6.5,-6.1 18.2,-9.4 3.3,-1 7.7,-2 7.8,-0.3 0.2,3 -13.3,0.8 -26,9.7 z" /><path
             id="path10392"
             fill-rule="evenodd"
             class="s1"
             d="m 111.5,395.1 c 0,0 3.3,-2.4 10.6,-2.3 2,0.1 4.7,0.2 5,1.3 0.6,1.8 -8.6,-2 -15.6,1 z" /><path
             id="path10394"
             fill-rule="evenodd"
             class="s1"
             d="m 78.6,381.3 c 0,0 -0.6,-4.2 -5.7,-9.3 -1.4,-1.4 -3.4,-3.2 -4.4,-2.7 -1.7,0.8 7.4,4.8 10.1,12 z" /><path
             id="path10396"
             fill-rule="evenodd"
             class="s1"
             d="m 72.3,426 c 0,0 -3.4,2.4 -5.5,9.3 -0.6,1.9 -1.3,4.6 -0.4,5.2 1.5,1.1 0.8,-8.8 5.9,-14.5 z" /><path
             id="path10398"
             fill-rule="evenodd"
             class="s0"
             d="m 80.6,409.3 c 0,0 -9.7,1 -21.6,11.1 -3.3,2.8 -7.6,6.7 -6.4,8.7 2.1,3.4 11.2,-14.6 28,-19.8 z" /><path
             id="path10400"
             fill-rule="evenodd"
             class="s1"
             d="m 86,414.4 c 0,0 -4,5.3 -5.4,14.4 -0.4,2.5 -0.8,5.9 0.6,5.9 2.2,-0.1 -0.7,-10.1 4.8,-20.3 z" /><path
             id="path10402"
             fill-rule="evenodd"
             class="s1"
             d="m 84.7,400.1 c 0,0 -4.7,-7.5 -15.3,-13.7 -2.9,-1.7 -6.8,-3.8 -7.4,-2.2 -0.9,2.8 12.7,4.1 22.7,15.9 z" /><path
             id="path10404"
             fill-rule="evenodd"
             class="s0"
             d="m 80.1,401 c 0,0 -7.2,-5.3 -19.2,-7.2 -3.4,-0.5 -7.9,-1 -7.8,0.8 0.2,2.9 13.4,-0.9 27,6.4 z" /><path
             id="path10406"
             fill-rule="evenodd"
             class="s0"
             d="m 79.1,405.4 c 0,0 -8.8,-1.6 -20.4,2 -3.3,1 -7.5,2.5 -6.7,4.1 1.5,2.6 11.6,-6.7 27.1,-6.1 z" /><path
             id="path10408"
             fill-rule="evenodd"
             class="s0"
             d="m 82,415.7 c 0,0 -4.6,7.6 -5.3,19.8 -0.2,3.4 -0.3,7.9 1.4,7.7 3,-0.5 -2.1,-13.2 3.9,-27.5 z" /><path
             id="path10410"
             fill-rule="evenodd"
             class="s1"
             d="m 79.2,410.1 c 0,0 -7.9,4 -15.2,13.8 -2,2.7 -4.6,6.4 -3,7.1 2.7,1.3 5.4,-12.2 18.2,-20.9 z" /><path
             id="path10412"
             fill-rule="evenodd"
             class="s0"
             d="m 67,389.1 c 0,0 -2.7,-3.2 -9.7,-4.9 -2,-0.5 -4.6,-1 -5.2,-0.1 -1,1.6 8.8,0.3 14.9,5 z" /><path
             id="path10414"
             fill-rule="evenodd"
             class="s0"
             d="m 63,401.9 c 0,0 -3.6,-2 -10.8,-1 -2,0.3 -4.6,0.8 -4.8,1.9 -0.3,1.9 8.3,-3 15.6,-0.9 z" /><path
             id="path10416"
             fill-rule="evenodd"
             class="s1"
             d="m 93.9,408.2 c 0,0 9.4,-2.5 24.1,2.6 4.1,1.4 9.5,3.5 9.1,5.8 -0.8,3.9 -15.7,-9.6 -33.2,-8.4 z" /><path
             id="path10418"
             fill-rule="evenodd"
             class="s0"
             d="m 94.4,405.4 c 0,0 8.3,-3.1 20.4,-1.6 3.4,0.4 7.9,1.1 7.3,2.8 -1,2.8 -12.6,-4.5 -27.7,-1.2 z" /><path
             id="path10420"
             fill-rule="evenodd"
             class="s1"
             d="m 92.9,411.1 c 0,0 9.2,3.1 18.7,15.5 2.6,3.4 5.9,8.2 4.3,9.9 -2.7,2.8 -7.8,-16.7 -23,-25.4 z" /><path
             id="path10422"
             fill-rule="evenodd"
             class="s0"
             d="m 108.6,421.4 c 0,0 3.9,1.5 7.8,7.6 1.1,1.7 2.5,4 1.7,4.9 -1.1,1.4 -3.1,-8.3 -9.5,-12.5 z" /><path
             id="path10424"
             fill-rule="evenodd"
             class="s0"
             d="m 89.1,413.7 c 0,0 6.6,7.2 8.9,22.5 0.6,4.3 1.3,10.1 -1,10.8 -3.7,1.2 1.3,-18.4 -7.9,-33.3 z" /><path
             id="path10426"
             fill-rule="evenodd"
             class="s1"
             d="m 97.9,430.3 c 0,0 2.7,3.2 3.2,10.4 0.1,2 0.2,4.7 -0.9,5.1 -1.7,0.7 1.3,-8.7 -2.3,-15.5 z" /><g
             id="g10452"><path
               id="path10428"
               fill-rule="evenodd"
               class="s2"
               d="m 94.1,402.5 c 0,0 7.7,-6 23.3,-7 4.3,-0.3 10.1,-0.4 10.6,1.9 0.8,3.8 -18.2,-2.8 -33.9,5.1 z" /><path
               id="path10430"
               fill-rule="evenodd"
               class="s2"
               d="m 88.4,398.6 c 0,0 4.4,-8.7 2.7,-24.2 -0.5,-4.3 -1.5,-10 -3.8,-10.1 -3.9,-0.1 6,17.4 1.1,34.3 z" /><path
               id="path10432"
               fill-rule="evenodd"
               class="s2"
               d="m 87.7,397.4 c 0,0 -0.1,-8.9 -5.8,-19.7 -1.6,-3 -3.9,-6.9 -5.2,-5.7 -2.3,1.9 8.7,10.1 11,25.4 z" /><path
               id="path10434"
               fill-rule="evenodd"
               class="s2"
               d="m 63.6,415.4 c 0,0 -4.1,0.6 -9.2,5.7 -1.4,1.5 -3.2,3.5 -2.7,4.5 0.9,1.6 4.8,-7.5 11.9,-10.2 z" /><path
               id="path10436"
               fill-rule="evenodd"
               class="s2"
               d="m 85.9,400.7 c 0,0 -0.7,-9.7 -10.4,-21.9 -2.6,-3.4 -6.5,-7.8 -8.5,-6.7 -3.4,2 14.3,11.7 18.9,28.6 z" /><path
               id="path10438"
               fill-rule="evenodd"
               class="s2"
               d="m 82.4,400.6 c 0,0 -6.3,-7.5 -21.3,-11.7 -4.1,-1.2 -9.8,-2.6 -10.8,-0.4 -1.6,3.6 18.4,1.1 32.1,12.1 z" /><path
               id="path10440"
               fill-rule="evenodd"
               class="s2"
               d="m 80.9,405.3 c 0,0 -8.8,-4.1 -24.2,-1.8 -4.2,0.6 -10,1.7 -10,4.1 0,3.9 17.2,-6.6 34.2,-2.3 z" /><path
               id="path10442"
               fill-rule="evenodd"
               class="s2"
               d="m 82.3,412.3 c 0,0 -7.6,6.2 -12,21.1 -1.3,4.2 -2.7,9.8 -0.6,10.8 3.6,1.7 1.4,-18.3 12.6,-31.9 z" /><path
               id="path10444"
               fill-rule="evenodd"
               class="s2"
               d="m 112.7,408.1 c 0,0 4.1,-0.9 10.7,2 1.8,0.8 4.2,2 4.1,3.1 -0.2,1.9 -7.1,-5.1 -14.8,-5.1 z" /><path
               id="path10446"
               fill-rule="evenodd"
               class="s2"
               d="m 94.9,409.1 c 0,0 8.6,2 17.9,9.9 2.6,2.2 5.9,5.2 4.5,6.3 -2.4,1.8 -8,-10.7 -22.4,-16.2 z" /><path
               id="path10448"
               fill-rule="evenodd"
               class="s2"
               d="m 91.8,412.9 c 0,0 6.6,5.9 10.9,17.3 1.2,3.1 2.7,7.4 0.9,7.7 -2.9,0.4 -1.9,-13.2 -11.8,-25 z" /><path
               id="path10450"
               fill-rule="evenodd"
               class="s2"
               d="m 88.1,415 c 0,0 -3.2,8.7 -1.8,21.5 0.4,3.6 1.1,8.3 2.8,7.8 2.9,-0.8 -4.5,-13.5 -1,-29.3 z" /></g></g></g></g></g></svg>
